# xmcd
#
# Track frame offsets:
#	150
#	6702
#	18536
#	37703
#	53467
#	64144
#	78670
#	91552
#	105439
#	118514
#	133423
#	149545
#
# Disc length: 2043 seconds
#
# Revision: 1
# Processed by: cddbd v1.4PL0 Copyright (c) Steve Scherf et al.
# Submitted via: audiograbber 1.80
#
DISCID=9a07f90c
DTITLE=The Gatlin Brothers - Christmas With The Gatlin Brothers
DYEAR=1900
DGENRE=
TTITLE0=Joy To The World
TTITLE1=Winter Wonderland
TTITLE2=White Christmas - The Christmas Song
TTITLE3=Sweet Baby Jesus
TTITLE4=Bring a Torch, Jeannette Isabella
TTITLE5=Do You Hear What I Hear
TTITLE6=O Holy Night
TTITLE7=Silver Bells
TTITLE8=What Child is This
TTITLE9=The Little Drummer Boy
TTITLE10=Silent Night
TTITLE11=Christmas All Year Round
EXTD=
EXTT0=
EXTT1=
EXTT2=
EXTT3=
EXTT4=
EXTT5=
EXTT6=
EXTT7=
EXTT8=
EXTT9=
EXTT10=
EXTT11=
PLAYORDER=
